# xmcd
#
# Track frame offsets:
#	150
#	24450
#	32250
#	37901
#	47656
#	54876
#	69182
#	82497
#	90068
#	94778
#	100823
#	114643
#	121573
#	131829
#	138249
#	148424
#	153674
#	166929
#	181404
#	194415
#	201304
#	206800
#	215125
#	222880
#	232161
#	238536
#	245676
#	255111
#	268001
#	275246
#	281336
#	283726
#	286236
#	290916
#	299552
#	310922
#	317662
#	324138
#	329513
#	334773
#	340869
#	347354
#	353884
#
# Disc length: 4763 seconds
#
# Revision: 1
# Processed by: cddbd v1.5.1PL0 Copyright (c) Steve Scherf et al.
# Submitted via: audiograbber 1.83.01
#
DISCID=9f12992b
DTITLE=Stylebox 1658 - Rumble In The Box
DYEAR=2005
DGENRE=Hip-Hop
TTITLE0=Intro
TTITLE1=Lean Back [Terror Squad]
TTITLE2=Back Up [Pitbul]
TTITLE3=Thatz My Name [Sly Boogie]
TTITLE4=Ol Skool Skit
TTITLE5=Freek-A-Live [Petey Pablo feat Twista]
TTITLE6=I Like That [Houston]
TTITLE7=Tempted To Touch [Ruppe]
TTITLE8=Indian Breakz
TTITLE9=Eyes on You [Jay Sean]
TTITLE10=Oh My God [Tony Sunshine]
TTITLE11=If You Gotta Man Than Go [Mario Winans]
TTITLE12=Outrageous [Britney Spears]
TTITLE13=Can't Play Me [Jamie Night feat. Jay-Z]
TTITLE14=New York [Alicia Keys feat Nas]
TTITLE15=Tear Shit Up
TTITLE16=Fallen [Mya feat. Ghostface]
TTITLE17=Should Known Betta [Case]
TTITLE18=Afrodisiac [Brandy]
TTITLE19=In The Black Of Knight [Slow Train Soul]
TTITLE20=The Message [Grandmaster Flash]
TTITLE21=Chi Chi Man [Tok]
TTITLE22=Can't Believe It's Not Butta [Sean Paul]
TTITLE23=Top Of The Game [Sean Paul]
TTITLE24=Row Da Boat [Don Yute]
TTITLE25=Get Out The Way [Ward 21]
TTITLE26=King of The Dancball [Bennie Man]
TTITLE27=Culo [Pitbull]
TTITLE28=Movin' [Rik Rok]
TTITLE29=I Usually Don't [Fabolous]
TTITLE30=How Will O Know [Whitney Houston]
TTITLE31=Funky Introduction
TTITLE32=Smooth Criminal [Michael Jackson]
TTITLE33=Can You Feel It [Jackson 5]
TTITLE34=Conga [Gloria Estefan]
TTITLE35=Hot [Ms. Thing]
TTITLE36=Trick Me [Kelis]
TTITLE37=Hot Like We [Cecile]
TTITLE38=Encore [Jay-Z]
TTITLE39=Change Cloths [Jay-Z]
TTITLE40=Move Somethin' [LL Cool Y]
TTITLE41=Single [Bligg]
TTITLE42=VIP [Bligg]
EXTD=
EXTT0=
EXTT1=
EXTT2=
EXTT3=
EXTT4=
EXTT5=
EXTT6=
EXTT7=
EXTT8=
EXTT9=
EXTT10=
EXTT11=
EXTT12=
EXTT13=
EXTT14=
EXTT15=
EXTT16=
EXTT17=
EXTT18=
EXTT19=
EXTT20=
EXTT21=
EXTT22=
EXTT23=
EXTT24=
EXTT25=
EXTT26=
EXTT27=
EXTT28=
EXTT29=
EXTT30=
EXTT31=
EXTT32=
EXTT33=
EXTT34=
EXTT35=
EXTT36=
EXTT37=
EXTT38=
EXTT39=
EXTT40=
EXTT41=
EXTT42=
PLAYORDER=
